<mxfile host="app.diagrams.net" modified="2020-08-27T07:31:12.041Z" agent="5.0 (Windows NT 10.0; Win64; x64) AppleWebKit/537.36 (KHTML, like Gecko) Chrome/79.0.3945.130 Safari/537.36" etag="3zQzRWOJeGyJLZESRhkM" version="13.6.2" type="github">
  <diagram id="RU9b3iGjxHIiC67uXJGJ" name="Page-2">
    <mxGraphModel dx="1422" dy="745" grid="1" gridSize="10" guides="1" tooltips="1" connect="1" arrows="1" fold="1" page="1" pageScale="1" pageWidth="827" pageHeight="1169" math="0" shadow="0">
      <root>
        <mxCell id="VMZ48c_UnOL8O7smYOZI-0" />
        <mxCell id="VMZ48c_UnOL8O7smYOZI-1" parent="VMZ48c_UnOL8O7smYOZI-0" />
        <mxCell id="LER32aOXw5r2hgaR8xJN-36" style="edgeStyle=orthogonalEdgeStyle;rounded=0;orthogonalLoop=1;jettySize=auto;html=1;exitX=1;exitY=0.5;exitDx=0;exitDy=0;fontSize=23;" parent="VMZ48c_UnOL8O7smYOZI-1" source="LER32aOXw5r2hgaR8xJN-30" target="LER32aOXw5r2hgaR8xJN-35" edge="1">
          <mxGeometry relative="1" as="geometry" />
        </mxCell>
        <mxCell id="LER32aOXw5r2hgaR8xJN-30" value="" style="rounded=0;whiteSpace=wrap;html=1;fontSize=23;align=center;fillColor=#d5e8d4;strokeColor=#82b366;" parent="VMZ48c_UnOL8O7smYOZI-1" vertex="1">
          <mxGeometry x="70" y="1150" width="510" height="280" as="geometry" />
        </mxCell>
        <mxCell id="LER32aOXw5r2hgaR8xJN-32" style="edgeStyle=orthogonalEdgeStyle;rounded=0;orthogonalLoop=1;jettySize=auto;html=1;exitX=1;exitY=0.25;exitDx=0;exitDy=0;fontSize=23;" parent="VMZ48c_UnOL8O7smYOZI-1" source="LER32aOXw5r2hgaR8xJN-20" target="LER32aOXw5r2hgaR8xJN-31" edge="1">
          <mxGeometry relative="1" as="geometry" />
        </mxCell>
        <mxCell id="LER32aOXw5r2hgaR8xJN-34" style="edgeStyle=orthogonalEdgeStyle;rounded=0;orthogonalLoop=1;jettySize=auto;html=1;exitX=1;exitY=0.75;exitDx=0;exitDy=0;fontSize=23;" parent="VMZ48c_UnOL8O7smYOZI-1" source="LER32aOXw5r2hgaR8xJN-20" target="LER32aOXw5r2hgaR8xJN-33" edge="1">
          <mxGeometry relative="1" as="geometry" />
        </mxCell>
        <mxCell id="LER32aOXw5r2hgaR8xJN-20" value="" style="rounded=0;whiteSpace=wrap;html=1;fontSize=23;align=center;fillColor=#dae8fc;strokeColor=#6c8ebf;" parent="VMZ48c_UnOL8O7smYOZI-1" vertex="1">
          <mxGeometry x="70" y="475" width="500" height="645" as="geometry" />
        </mxCell>
        <mxCell id="LER32aOXw5r2hgaR8xJN-3" style="edgeStyle=orthogonalEdgeStyle;rounded=0;orthogonalLoop=1;jettySize=auto;html=1;exitX=1;exitY=0.5;exitDx=0;exitDy=0;fontSize=23;" parent="VMZ48c_UnOL8O7smYOZI-1" source="LER32aOXw5r2hgaR8xJN-0" target="LER32aOXw5r2hgaR8xJN-2" edge="1">
          <mxGeometry relative="1" as="geometry" />
        </mxCell>
        <mxCell id="LER32aOXw5r2hgaR8xJN-0" value="" style="rounded=0;whiteSpace=wrap;html=1;fontSize=23;align=center;fillColor=#fff2cc;strokeColor=#d6b656;" parent="VMZ48c_UnOL8O7smYOZI-1" vertex="1">
          <mxGeometry x="70" y="40" width="490" height="400" as="geometry" />
        </mxCell>
        <mxCell id="WDDT5QzZZcf-vkFT2QWg-9" style="edgeStyle=orthogonalEdgeStyle;rounded=0;orthogonalLoop=1;jettySize=auto;html=1;exitX=0.5;exitY=1;exitDx=0;exitDy=0;fontSize=23;" parent="VMZ48c_UnOL8O7smYOZI-1" source="VUsV0rr6xF3jTRKO8yTZ-0" target="WDDT5QzZZcf-vkFT2QWg-8" edge="1">
          <mxGeometry relative="1" as="geometry" />
        </mxCell>
        <mxCell id="VUsV0rr6xF3jTRKO8yTZ-0" value="&lt;font color=&quot;#333333&quot; face=&quot;open sans, clear sans, helvetica neue, helvetica, arial, sans-serif&quot;&gt;&lt;span style=&quot;font-size: 16px&quot;&gt;实施环境调研评估，保证所实施项目内容可以得到主要相关人员的支持&lt;/span&gt;&lt;/font&gt;" style="rounded=0;whiteSpace=wrap;html=1;fontSize=23;align=center;" parent="VMZ48c_UnOL8O7smYOZI-1" vertex="1">
          <mxGeometry x="140" y="60" width="350" height="60" as="geometry" />
        </mxCell>
        <mxCell id="LER32aOXw5r2hgaR8xJN-14" style="edgeStyle=orthogonalEdgeStyle;rounded=0;orthogonalLoop=1;jettySize=auto;html=1;exitX=0.5;exitY=1;exitDx=0;exitDy=0;entryX=0.5;entryY=0;entryDx=0;entryDy=0;fontSize=23;" parent="VMZ48c_UnOL8O7smYOZI-1" source="WDDT5QzZZcf-vkFT2QWg-0" target="LER32aOXw5r2hgaR8xJN-11" edge="1">
          <mxGeometry relative="1" as="geometry" />
        </mxCell>
        <mxCell id="WDDT5QzZZcf-vkFT2QWg-0" value="&lt;span style=&quot;color: rgb(51 , 51 , 51) ; font-family: &amp;#34;open sans&amp;#34; , &amp;#34;clear sans&amp;#34; , &amp;#34;helvetica neue&amp;#34; , &amp;#34;helvetica&amp;#34; , &amp;#34;arial&amp;#34; , sans-serif ; font-size: 16px&quot;&gt;协助建立&lt;/span&gt;&lt;span style=&quot;color: rgb(51 , 51 , 51) ; font-family: &amp;#34;open sans&amp;#34; , &amp;#34;clear sans&amp;#34; , &amp;#34;helvetica neue&amp;#34; , &amp;#34;helvetica&amp;#34; , &amp;#34;arial&amp;#34; , sans-serif ; font-size: 16px&quot;&gt;项目团队库发布数据&lt;/span&gt;" style="rounded=0;whiteSpace=wrap;html=1;fontSize=23;align=center;" parent="VMZ48c_UnOL8O7smYOZI-1" vertex="1">
          <mxGeometry x="200" y="960" width="230" height="50" as="geometry" />
        </mxCell>
        <mxCell id="LER32aOXw5r2hgaR8xJN-12" style="edgeStyle=orthogonalEdgeStyle;rounded=0;orthogonalLoop=1;jettySize=auto;html=1;exitX=0.5;exitY=1;exitDx=0;exitDy=0;fontSize=23;" parent="VMZ48c_UnOL8O7smYOZI-1" source="WDDT5QzZZcf-vkFT2QWg-1" target="WDDT5QzZZcf-vkFT2QWg-0" edge="1">
          <mxGeometry relative="1" as="geometry" />
        </mxCell>
        <mxCell id="WDDT5QzZZcf-vkFT2QWg-1" value="&lt;span style=&quot;color: rgb(51 , 51 , 51) ; font-family: &amp;#34;open sans&amp;#34; , &amp;#34;clear sans&amp;#34; , &amp;#34;helvetica neue&amp;#34; , &amp;#34;helvetica&amp;#34; , &amp;#34;arial&amp;#34; , sans-serif ; font-size: 16px&quot;&gt;数据治理模块按需分批交付，同时提供用户测试参与&lt;/span&gt;" style="rounded=0;whiteSpace=wrap;html=1;fontSize=23;align=center;" parent="VMZ48c_UnOL8O7smYOZI-1" vertex="1">
          <mxGeometry x="95" y="870" width="440" height="50" as="geometry" />
        </mxCell>
        <mxCell id="LER32aOXw5r2hgaR8xJN-13" style="edgeStyle=orthogonalEdgeStyle;rounded=0;orthogonalLoop=1;jettySize=auto;html=1;exitX=0.5;exitY=1;exitDx=0;exitDy=0;fontSize=23;" parent="VMZ48c_UnOL8O7smYOZI-1" source="WDDT5QzZZcf-vkFT2QWg-2" target="WDDT5QzZZcf-vkFT2QWg-1" edge="1">
          <mxGeometry relative="1" as="geometry" />
        </mxCell>
        <mxCell id="WDDT5QzZZcf-vkFT2QWg-2" value="&lt;span style=&quot;color: rgb(51 , 51 , 51) ; font-family: &amp;#34;open sans&amp;#34; , &amp;#34;clear sans&amp;#34; , &amp;#34;helvetica neue&amp;#34; , &amp;#34;helvetica&amp;#34; , &amp;#34;arial&amp;#34; , sans-serif ; font-size: 16px&quot;&gt;数据接入形成机构资源中心&lt;br&gt;（必要的检索报表功能交付）&lt;br&gt;&lt;/span&gt;" style="rounded=0;whiteSpace=wrap;html=1;fontSize=23;align=center;" parent="VMZ48c_UnOL8O7smYOZI-1" vertex="1">
          <mxGeometry x="160" y="780" width="310" height="50" as="geometry" />
        </mxCell>
        <mxCell id="LER32aOXw5r2hgaR8xJN-6" style="edgeStyle=orthogonalEdgeStyle;rounded=0;orthogonalLoop=1;jettySize=auto;html=1;exitX=0.5;exitY=1;exitDx=0;exitDy=0;fontSize=23;" parent="VMZ48c_UnOL8O7smYOZI-1" source="WDDT5QzZZcf-vkFT2QWg-3" target="WDDT5QzZZcf-vkFT2QWg-2" edge="1">
          <mxGeometry relative="1" as="geometry" />
        </mxCell>
        <mxCell id="WDDT5QzZZcf-vkFT2QWg-3" value="&lt;span style=&quot;color: rgb(51 , 51 , 51) ; font-family: &amp;#34;open sans&amp;#34; , &amp;#34;clear sans&amp;#34; , &amp;#34;helvetica neue&amp;#34; , &amp;#34;helvetica&amp;#34; , &amp;#34;arial&amp;#34; , sans-serif ; font-size: 16px&quot;&gt;平台部署及用户测试参与&lt;br&gt;（采集个性化需求、平台用户培养）&lt;br&gt;&lt;/span&gt;" style="rounded=0;whiteSpace=wrap;html=1;fontSize=23;align=center;" parent="VMZ48c_UnOL8O7smYOZI-1" vertex="1">
          <mxGeometry x="145" y="680" width="340" height="60" as="geometry" />
        </mxCell>
        <mxCell id="76UF1drekzORDb4V13I_-1" style="edgeStyle=orthogonalEdgeStyle;rounded=0;orthogonalLoop=1;jettySize=auto;html=1;exitX=0.5;exitY=1;exitDx=0;exitDy=0;fontSize=23;" parent="VMZ48c_UnOL8O7smYOZI-1" target="WDDT5QzZZcf-vkFT2QWg-3" edge="1">
          <mxGeometry relative="1" as="geometry">
            <mxPoint x="315" y="634.5" as="sourcePoint" />
          </mxGeometry>
        </mxCell>
        <mxCell id="WDDT5QzZZcf-vkFT2QWg-4" value="&lt;span style=&quot;color: rgb(51 , 51 , 51) ; font-family: &amp;#34;open sans&amp;#34; , &amp;#34;clear sans&amp;#34; , &amp;#34;helvetica neue&amp;#34; , &amp;#34;helvetica&amp;#34; , &amp;#34;arial&amp;#34; , sans-serif ; font-size: 16px&quot;&gt;软件及IT技术选型&lt;br&gt;（采用何种抽数方案、如何存数数据、部署哪个版本平台等）&lt;/span&gt;" style="rounded=0;whiteSpace=wrap;html=1;fontSize=23;align=center;" parent="VMZ48c_UnOL8O7smYOZI-1" vertex="1">
          <mxGeometry x="85" y="570" width="460" height="60" as="geometry" />
        </mxCell>
        <mxCell id="LER32aOXw5r2hgaR8xJN-5" style="edgeStyle=orthogonalEdgeStyle;rounded=0;orthogonalLoop=1;jettySize=auto;html=1;exitX=0.5;exitY=1;exitDx=0;exitDy=0;fontSize=23;" parent="VMZ48c_UnOL8O7smYOZI-1" source="WDDT5QzZZcf-vkFT2QWg-5" target="WDDT5QzZZcf-vkFT2QWg-4" edge="1">
          <mxGeometry relative="1" as="geometry" />
        </mxCell>
        <mxCell id="WDDT5QzZZcf-vkFT2QWg-5" value="&lt;span style=&quot;color: rgb(51 , 51 , 51) ; font-family: &amp;#34;open sans&amp;#34; , &amp;#34;clear sans&amp;#34; , &amp;#34;helvetica neue&amp;#34; , &amp;#34;helvetica&amp;#34; , &amp;#34;arial&amp;#34; , sans-serif ; font-size: 16px&quot;&gt;获得必要的硬件及网络环境支持&lt;/span&gt;" style="rounded=0;whiteSpace=wrap;html=1;fontSize=23;align=center;" parent="VMZ48c_UnOL8O7smYOZI-1" vertex="1">
          <mxGeometry x="190" y="480" width="250" height="50" as="geometry" />
        </mxCell>
        <mxCell id="kpSemMNnTrtoZiZeKhl3-0" style="edgeStyle=orthogonalEdgeStyle;rounded=0;orthogonalLoop=1;jettySize=auto;html=1;exitX=0.5;exitY=1;exitDx=0;exitDy=0;entryX=0.5;entryY=0;entryDx=0;entryDy=0;fontSize=23;" parent="VMZ48c_UnOL8O7smYOZI-1" source="WDDT5QzZZcf-vkFT2QWg-6" target="WDDT5QzZZcf-vkFT2QWg-5" edge="1">
          <mxGeometry relative="1" as="geometry" />
        </mxCell>
        <mxCell id="WDDT5QzZZcf-vkFT2QWg-6" value="&lt;span style=&quot;color: rgb(51 , 51 , 51) ; font-family: &amp;#34;open sans&amp;#34; , &amp;#34;clear sans&amp;#34; , &amp;#34;helvetica neue&amp;#34; , &amp;#34;helvetica&amp;#34; , &amp;#34;arial&amp;#34; , sans-serif ; font-size: 16px&quot;&gt;风险与有利因素分析&lt;br&gt;（可能会存在什么困难、遇到困难从哪里可以得到支持）&lt;br&gt;&lt;/span&gt;" style="rounded=0;whiteSpace=wrap;html=1;fontSize=23;align=center;" parent="VMZ48c_UnOL8O7smYOZI-1" vertex="1">
          <mxGeometry x="105" y="360" width="420" height="60" as="geometry" />
        </mxCell>
        <mxCell id="_MEcOLAeALdqEDcUhU7d-0" style="edgeStyle=orthogonalEdgeStyle;rounded=0;orthogonalLoop=1;jettySize=auto;html=1;exitX=0.5;exitY=1;exitDx=0;exitDy=0;fontSize=23;" parent="VMZ48c_UnOL8O7smYOZI-1" source="WDDT5QzZZcf-vkFT2QWg-7" target="WDDT5QzZZcf-vkFT2QWg-6" edge="1">
          <mxGeometry relative="1" as="geometry" />
        </mxCell>
        <mxCell id="WDDT5QzZZcf-vkFT2QWg-7" value="&lt;span style=&quot;color: rgb(51 , 51 , 51) ; font-family: &amp;#34;open sans&amp;#34; , &amp;#34;clear sans&amp;#34; , &amp;#34;helvetica neue&amp;#34; , &amp;#34;helvetica&amp;#34; , &amp;#34;arial&amp;#34; , sans-serif ; font-size: 16px&quot;&gt;设计实时线路图&lt;br&gt;（明确时间及任务里程碑）&lt;br&gt;&lt;/span&gt;" style="rounded=0;whiteSpace=wrap;html=1;fontSize=23;align=center;" parent="VMZ48c_UnOL8O7smYOZI-1" vertex="1">
          <mxGeometry x="160" y="270" width="310" height="60" as="geometry" />
        </mxCell>
        <mxCell id="vU_R9AigjIBWVAW1nXXe-0" style="edgeStyle=orthogonalEdgeStyle;rounded=0;orthogonalLoop=1;jettySize=auto;html=1;exitX=0.5;exitY=1;exitDx=0;exitDy=0;fontSize=23;" parent="VMZ48c_UnOL8O7smYOZI-1" source="WDDT5QzZZcf-vkFT2QWg-8" target="WDDT5QzZZcf-vkFT2QWg-7" edge="1">
          <mxGeometry relative="1" as="geometry" />
        </mxCell>
        <mxCell id="WDDT5QzZZcf-vkFT2QWg-8" value="&lt;span style=&quot;color: rgb(51 , 51 , 51) ; font-family: &amp;#34;open sans&amp;#34; , &amp;#34;clear sans&amp;#34; , &amp;#34;helvetica neue&amp;#34; , &amp;#34;helvetica&amp;#34; , &amp;#34;arial&amp;#34; , sans-serif ; font-size: 16px&quot;&gt;明确项目核心目标及考核标准&lt;/span&gt;" style="rounded=0;whiteSpace=wrap;html=1;fontSize=23;align=center;" parent="VMZ48c_UnOL8O7smYOZI-1" vertex="1">
          <mxGeometry x="160" y="170" width="310" height="50" as="geometry" />
        </mxCell>
        <mxCell id="LER32aOXw5r2hgaR8xJN-2" value="调研报告" style="shape=document;whiteSpace=wrap;html=1;boundedLbl=1;fontSize=23;align=center;" parent="VMZ48c_UnOL8O7smYOZI-1" vertex="1">
          <mxGeometry x="620" y="200" width="120" height="80" as="geometry" />
        </mxCell>
        <mxCell id="LER32aOXw5r2hgaR8xJN-29" style="edgeStyle=orthogonalEdgeStyle;rounded=0;orthogonalLoop=1;jettySize=auto;html=1;exitX=0.5;exitY=1;exitDx=0;exitDy=0;fontSize=23;" parent="VMZ48c_UnOL8O7smYOZI-1" source="LER32aOXw5r2hgaR8xJN-10" target="LER32aOXw5r2hgaR8xJN-16" edge="1">
          <mxGeometry relative="1" as="geometry" />
        </mxCell>
        <mxCell id="LER32aOXw5r2hgaR8xJN-10" value="&lt;span style=&quot;color: rgb(51 , 51 , 51) ; font-family: &amp;#34;open sans&amp;#34; , &amp;#34;clear sans&amp;#34; , &amp;#34;helvetica neue&amp;#34; , &amp;#34;helvetica&amp;#34; , &amp;#34;arial&amp;#34; , sans-serif ; font-size: 16px&quot;&gt;项目评估及交付&lt;/span&gt;" style="rounded=0;whiteSpace=wrap;html=1;fontSize=23;align=center;" parent="VMZ48c_UnOL8O7smYOZI-1" vertex="1">
          <mxGeometry x="220" y="1160" width="190" height="50" as="geometry" />
        </mxCell>
        <mxCell id="LER32aOXw5r2hgaR8xJN-15" style="edgeStyle=orthogonalEdgeStyle;rounded=0;orthogonalLoop=1;jettySize=auto;html=1;exitX=0.5;exitY=1;exitDx=0;exitDy=0;fontSize=23;" parent="VMZ48c_UnOL8O7smYOZI-1" source="LER32aOXw5r2hgaR8xJN-11" target="LER32aOXw5r2hgaR8xJN-10" edge="1">
          <mxGeometry relative="1" as="geometry" />
        </mxCell>
        <mxCell id="LER32aOXw5r2hgaR8xJN-11" value="&lt;span style=&quot;color: rgb(51 , 51 , 51) ; font-family: &amp;#34;open sans&amp;#34; , &amp;#34;clear sans&amp;#34; , &amp;#34;helvetica neue&amp;#34; , &amp;#34;helvetica&amp;#34; , &amp;#34;arial&amp;#34; , sans-serif ; font-size: 16px&quot;&gt;科研分析平台及应用部署（待续）&lt;/span&gt;" style="rounded=0;whiteSpace=wrap;html=1;fontSize=23;align=center;" parent="VMZ48c_UnOL8O7smYOZI-1" vertex="1">
          <mxGeometry x="190" y="1050" width="250" height="50" as="geometry" />
        </mxCell>
        <mxCell id="LER32aOXw5r2hgaR8xJN-25" style="edgeStyle=orthogonalEdgeStyle;rounded=0;orthogonalLoop=1;jettySize=auto;html=1;exitX=0.5;exitY=1;exitDx=0;exitDy=0;fontSize=23;" parent="VMZ48c_UnOL8O7smYOZI-1" source="LER32aOXw5r2hgaR8xJN-16" target="LER32aOXw5r2hgaR8xJN-18" edge="1">
          <mxGeometry relative="1" as="geometry" />
        </mxCell>
        <mxCell id="LER32aOXw5r2hgaR8xJN-16" value="&lt;font color=&quot;#333333&quot; face=&quot;open sans, clear sans, helvetica neue, helvetica, arial, sans-serif&quot;&gt;&lt;span style=&quot;font-size: 16px&quot;&gt;扩展使用规模，为用户创造价值&lt;/span&gt;&lt;/font&gt;" style="rounded=0;whiteSpace=wrap;html=1;fontSize=23;align=center;" parent="VMZ48c_UnOL8O7smYOZI-1" vertex="1">
          <mxGeometry x="175" y="1250" width="280" height="50" as="geometry" />
        </mxCell>
        <mxCell id="LER32aOXw5r2hgaR8xJN-26" value="良性循环" style="edgeStyle=orthogonalEdgeStyle;rounded=0;orthogonalLoop=1;jettySize=auto;html=1;exitX=1;exitY=0.5;exitDx=0;exitDy=0;entryX=1;entryY=0.5;entryDx=0;entryDy=0;fontSize=23;" parent="VMZ48c_UnOL8O7smYOZI-1" source="LER32aOXw5r2hgaR8xJN-18" target="LER32aOXw5r2hgaR8xJN-10" edge="1">
          <mxGeometry relative="1" as="geometry">
            <Array as="points">
              <mxPoint x="530" y="1375" />
              <mxPoint x="530" y="1185" />
            </Array>
          </mxGeometry>
        </mxCell>
        <mxCell id="LER32aOXw5r2hgaR8xJN-18" value="&lt;span style=&quot;color: rgb(51 , 51 , 51) ; font-family: &amp;#34;open sans&amp;#34; , &amp;#34;clear sans&amp;#34; , &amp;#34;helvetica neue&amp;#34; , &amp;#34;helvetica&amp;#34; , &amp;#34;arial&amp;#34; , sans-serif ; font-size: 16px&quot;&gt;新需求迭代&lt;/span&gt;" style="rounded=0;whiteSpace=wrap;html=1;fontSize=23;align=center;" parent="VMZ48c_UnOL8O7smYOZI-1" vertex="1">
          <mxGeometry x="220" y="1340" width="190" height="50" as="geometry" />
        </mxCell>
        <mxCell id="LER32aOXw5r2hgaR8xJN-31" value="实施报告" style="shape=document;whiteSpace=wrap;html=1;boundedLbl=1;fontSize=23;align=center;" parent="VMZ48c_UnOL8O7smYOZI-1" vertex="1">
          <mxGeometry x="620" y="600" width="120" height="80" as="geometry" />
        </mxCell>
        <mxCell id="LER32aOXw5r2hgaR8xJN-33" value="操作手册及培训" style="shape=document;whiteSpace=wrap;html=1;boundedLbl=1;fontSize=23;align=center;" parent="VMZ48c_UnOL8O7smYOZI-1" vertex="1">
          <mxGeometry x="630" y="920" width="120" height="80" as="geometry" />
        </mxCell>
        <mxCell id="LER32aOXw5r2hgaR8xJN-35" value="交付报告" style="shape=document;whiteSpace=wrap;html=1;boundedLbl=1;fontSize=23;align=center;" parent="VMZ48c_UnOL8O7smYOZI-1" vertex="1">
          <mxGeometry x="630" y="1250" width="120" height="80" as="geometry" />
        </mxCell>
      </root>
    </mxGraphModel>
  </diagram>
</mxfile>
